CddbId:da0fa363:[150, 903, 2575, 6086, 9276, 12418, 14591, 17127, 20833, 27603, 31066, 34165, 37342, 40337, 43799, 47150, 50731, 54193, 57251, 60755, 63917, 67414, 70793, 74478, 77856, 80343, 83499, 86522, 89280, 92673, 95487, 98030, 100872, 104041, 107106, 111084, 114560, 118126, 121874, 125503, 129753, 132915, 136823, 140028, 143072, 146367, 150358, 153521, 156774, 159337, 162653, 166150, 170225, 173360, 176982, 179741, 182422, 185390, 187835, 190684, 194223, 197372, 200367, 203836, 207625, 210544, 212940, 216570, 220756, 223800, 228126, 230989, 233511, 236611, 239899, 243270, 246085, 248955, 252034, 255384, 258519, 261243, 263527, 265373, 267707, 270312, 271928, 273593, 275892, 277822, 278811, 280573, 282740, 284391, 287609, 289657, 295083, 297285, 299103]:300375:74:da0fa363 99 150 903 2575 6086 9276 12418 14591 17127 20833 27603 31066 34165 37342 40337 43799 47150 50731 54193 57251 60755 63917 67414 70793 74478 77856 80343 83499 86522 89280 92673 95487 98030 100872 104041 107106 111084 114560 118126 121874 125503 129753 132915 136823 140028 143072 146367 150358 153521 156774 159337 162653 166150 170225 173360 176982 179741 182422 185390 187835 190684 194223 197372 200367 203836 207625 210544 212940 216570 220756 223800 228126 230989 233511 236611 239899 243270 246085 248955 252034 255384 258519 261243 263527 265373 267707 270312 271928 273593 275892 277822 278811 280573 282740 284391 287609 289657 295083 297285 299103 4005: 99 0 0 0 0 0 0 0 0 0 0 0 0 0 0 0 0 0 0 0 0 0 0 0 0 0 0 0 0 0 0 0 0 0 0 0 0 0 0 0 0 0 0 0 0 0 0 0 0 0 0 0 0 0 0 0 0 0 0 0 0 0 0 0 0 0 0 0 0 0 0 0 0 0 0 0 0 0 0 0 0 0 0 0 0 0 0 0 0 0 0 0 0 0 0 0 0 0 0 0 4005
num_tracks: 99
offsets: [150, 903, 2575, 6086, 9276, 12418, 14591, 17127, 20833, 27603, 31066, 34165, 37342, 40337, 43799, 47150, 50731, 54193, 57251, 60755, 63917, 67414, 70793, 74478, 77856, 80343, 83499, 86522, 89280, 92673, 95487, 98030, 100872, 104041, 107106, 111084, 114560, 118126, 121874, 125503, 129753, 132915, 136823, 140028, 143072, 146367, 150358, 153521, 156774, 159337, 162653, 166150, 170225, 173360, 176982, 179741, 182422, 185390, 187835, 190684, 194223, 197372, 200367, 203836, 207625, 210544, 212940, 216570, 220756, 223800, 228126, 230989, 233511, 236611, 239899, 243270, 246085, 248955, 252034, 255384, 258519, 261243, 263527, 265373, 267707, 270312, 271928, 273593, 275892, 277822, 278811, 280573, 282740, 284391, 287609, 289657, 295083, 297285, 299103]
extents: [0, 0, 0, 0, 0, 0, 0, 0, 0, 0, 0, 0, 0, 0, 0, 0, 0, 0, 0, 0, 0, 0, 0, 0, 0, 0, 0, 0, 0, 0, 0, 0, 0, 0, 0, 0, 0, 0, 0, 0, 0, 0, 0, 0, 0, 0, 0, 0, 0, 0, 0, 0, 0, 0, 0, 0, 0, 0, 0, 0, 0, 0, 0, 0, 0, 0, 0, 0, 0, 0, 0, 0, 0, 0, 0, 0, 0, 0, 0, 0, 0, 0, 0, 0, 0, 0, 0, 0, 0, 0, 0, 0, 0, 0, 0, 0, 0, 0, 0]
total_length: 4005
cddb: [3658457955, 99, 150, 903, 2575, 6086, 9276, 12418, 14591, 17127, 20833, 27603, 31066, 34165, 37342, 40337, 43799, 47150, 50731, 54193, 57251, 60755, 63917, 67414, 70793, 74478, 77856, 80343, 83499, 86522, 89280, 92673, 95487, 98030, 100872, 104041, 107106, 111084, 114560, 118126, 121874, 125503, 129753, 132915, 136823, 140028, 143072, 146367, 150358, 153521, 156774, 159337, 162653, 166150, 170225, 173360, 176982, 179741, 182422, 185390, 187835, 190684, 194223, 197372, 200367, 203836, 207625, 210544, 212940, 216570, 220756, 223800, 228126, 230989, 233511, 236611, 239899, 243270, 246085, 248955, 252034, 255384, 258519, 261243, 263527, 265373, 267707, 270312, 271928, 273593, 275892, 277822, 278811, 280573, 282740, 284391, 287609, 289657, 295083, 297285, 299103, 4005]
musicbrainz: ('99 150 903 2575 6086 9276 12418 14591 17127 20833 27603 31066 34165 37342 40337 43799 47150 50731 54193 57251 60755 63917 67414 70793 74478 77856 80343 83499 86522 89280 92673 95487 98030 100872 104041 107106 111084 114560 118126 121874 125503 129753 132915 136823 140028 143072 146367 150358 153521 156774 159337 162653 166150 170225 173360 176982 179741 182422 185390 187835 190684 194223 197372 200367 203836 207625 210544 212940 216570 220756 223800 228126 230989 233511 236611 239899 243270 246085 248955 252034 255384 258519 261243 263527 265373 267707 270312 271928 273593 275892 277822 278811 280573 282740 284391 287609 289657 295083 297285 299103 300375', 'CR_8o01wYNawK0RhX3khRuhaXFE-')

CD record:
Device type    : Removable CD-ROM
Version        : 0
Response Format: 2
Capabilities   : 
Vendor_info    : 'FREECOM_'
Identification : 'DVD+/-RW16H4    '
Revision       : 'FR00'
Device seems to be: Generic mmc2 DVD-R/DVD-RW.
Using generic SCSI-3/mmc   CD-R/CD-RW driver (mmc_cdr).
Driver flags   : MMC-3 SWABAUDIO BURNFREE 
Supported modes: TAO PACKET SAO SAO/R96R RAW/R96R
first: 1 last 99
track:   1 lba:         0 (        0) 00:02:00 adr: 1 control: 0 mode: -1
track:   2 lba:       753 (     3012) 00:12:03 adr: 1 control: 0 mode: -1
track:   3 lba:      2425 (     9700) 00:34:25 adr: 1 control: 0 mode: -1
track:   4 lba:      5936 (    23744) 01:21:11 adr: 1 control: 0 mode: -1
track:   5 lba:      9126 (    36504) 02:03:51 adr: 1 control: 0 mode: -1
track:   6 lba:     12268 (    49072) 02:45:43 adr: 1 control: 0 mode: -1
track:   7 lba:     14441 (    57764) 03:14:41 adr: 1 control: 0 mode: -1
track:   8 lba:     16977 (    67908) 03:48:27 adr: 1 control: 0 mode: -1
track:   9 lba:     20683 (    82732) 04:37:58 adr: 1 control: 0 mode: -1
track:  10 lba:     27453 (   109812) 06:08:03 adr: 1 control: 0 mode: -1
track:  11 lba:     30916 (   123664) 06:54:16 adr: 1 control: 0 mode: -1
track:  12 lba:     34015 (   136060) 07:35:40 adr: 1 control: 0 mode: -1
track:  13 lba:     37192 (   148768) 08:17:67 adr: 1 control: 0 mode: -1
track:  14 lba:     40187 (   160748) 08:57:62 adr: 1 control: 0 mode: -1
track:  15 lba:     43649 (   174596) 09:43:74 adr: 1 control: 0 mode: -1
track:  16 lba:     47000 (   188000) 10:28:50 adr: 1 control: 0 mode: -1
track:  17 lba:     50581 (   202324) 11:16:31 adr: 1 control: 0 mode: -1
track:  18 lba:     54043 (   216172) 12:02:43 adr: 1 control: 0 mode: -1
track:  19 lba:     57101 (   228404) 12:43:26 adr: 1 control: 0 mode: -1
track:  20 lba:     60605 (   242420) 13:30:05 adr: 1 control: 0 mode: -1
track:  21 lba:     63767 (   255068) 14:12:17 adr: 1 control: 0 mode: -1
track:  22 lba:     67264 (   269056) 14:58:64 adr: 1 control: 0 mode: -1
track:  23 lba:     70643 (   282572) 15:43:68 adr: 1 control: 0 mode: -1
track:  24 lba:     74328 (   297312) 16:33:03 adr: 1 control: 0 mode: -1
track:  25 lba:     77706 (   310824) 17:18:06 adr: 1 control: 0 mode: -1
track:  26 lba:     80193 (   320772) 17:51:18 adr: 1 control: 0 mode: -1
track:  27 lba:     83349 (   333396) 18:33:24 adr: 1 control: 0 mode: -1
track:  28 lba:     86372 (   345488) 19:13:47 adr: 1 control: 0 mode: -1
track:  29 lba:     89130 (   356520) 19:50:30 adr: 1 control: 0 mode: -1
track:  30 lba:     92523 (   370092) 20:35:48 adr: 1 control: 0 mode: -1
track:  31 lba:     95337 (   381348) 21:13:12 adr: 1 control: 0 mode: -1
track:  32 lba:     97880 (   391520) 21:47:05 adr: 1 control: 0 mode: -1
track:  33 lba:    100722 (   402888) 22:24:72 adr: 1 control: 0 mode: -1
track:  34 lba:    103891 (   415564) 23:07:16 adr: 1 control: 0 mode: -1
track:  35 lba:    106956 (   427824) 23:48:06 adr: 1 control: 0 mode: -1
track:  36 lba:    110934 (   443736) 24:41:09 adr: 1 control: 0 mode: -1
track:  37 lba:    114410 (   457640) 25:27:35 adr: 1 control: 0 mode: -1
track:  38 lba:    117976 (   471904) 26:15:01 adr: 1 control: 0 mode: -1
track:  39 lba:    121724 (   486896) 27:04:74 adr: 1 control: 0 mode: -1
track:  40 lba:    125353 (   501412) 27:53:28 adr: 1 control: 0 mode: -1
track:  41 lba:    129603 (   518412) 28:50:03 adr: 1 control: 0 mode: -1
track:  42 lba:    132765 (   531060) 29:32:15 adr: 1 control: 0 mode: -1
track:  43 lba:    136673 (   546692) 30:24:23 adr: 1 control: 0 mode: -1
track:  44 lba:    139878 (   559512) 31:07:03 adr: 1 control: 0 mode: -1
track:  45 lba:    142922 (   571688) 31:47:47 adr: 1 control: 0 mode: -1
track:  46 lba:    146217 (   584868) 32:31:42 adr: 1 control: 0 mode: -1
track:  47 lba:    150208 (   600832) 33:24:58 adr: 1 control: 0 mode: -1
track:  48 lba:    153371 (   613484) 34:06:71 adr: 1 control: 0 mode: -1
track:  49 lba:    156624 (   626496) 34:50:24 adr: 1 control: 0 mode: -1
track:  50 lba:    159187 (   636748) 35:24:37 adr: 1 control: 0 mode: -1
track:  51 lba:    162503 (   650012) 36:08:53 adr: 1 control: 0 mode: -1
track:  52 lba:    166000 (   664000) 36:55:25 adr: 1 control: 0 mode: -1
track:  53 lba:    170075 (   680300) 37:49:50 adr: 1 control: 0 mode: -1
track:  54 lba:    173210 (   692840) 38:31:35 adr: 1 control: 0 mode: -1
track:  55 lba:    176832 (   707328) 39:19:57 adr: 1 control: 0 mode: -1
track:  56 lba:    179591 (   718364) 39:56:41 adr: 1 control: 0 mode: -1
track:  57 lba:    182272 (   729088) 40:32:22 adr: 1 control: 0 mode: -1
track:  58 lba:    185240 (   740960) 41:11:65 adr: 1 control: 0 mode: -1
track:  59 lba:    187685 (   750740) 41:44:35 adr: 1 control: 0 mode: -1
track:  60 lba:    190534 (   762136) 42:22:34 adr: 1 control: 0 mode: -1
track:  61 lba:    194073 (   776292) 43:09:48 adr: 1 control: 0 mode: -1
track:  62 lba:    197222 (   788888) 43:51:47 adr: 1 control: 0 mode: -1
track:  63 lba:    200217 (   800868) 44:31:42 adr: 1 control: 0 mode: -1
track:  64 lba:    203686 (   814744) 45:17:61 adr: 1 control: 0 mode: -1
track:  65 lba:    207475 (   829900) 46:08:25 adr: 1 control: 0 mode: -1
track:  66 lba:    210394 (   841576) 46:47:19 adr: 1 control: 0 mode: -1
track:  67 lba:    212790 (   851160) 47:19:15 adr: 1 control: 0 mode: -1
track:  68 lba:    216420 (   865680) 48:07:45 adr: 1 control: 0 mode: -1
track:  69 lba:    220606 (   882424) 49:03:31 adr: 1 control: 0 mode: -1
track:  70 lba:    223650 (   894600) 49:44:00 adr: 1 control: 0 mode: -1
track:  71 lba:    227976 (   911904) 50:41:51 adr: 1 control: 0 mode: -1
track:  72 lba:    230839 (   923356) 51:19:64 adr: 1 control: 0 mode: -1
track:  73 lba:    233361 (   933444) 51:53:36 adr: 1 control: 0 mode: -1
track:  74 lba:    236461 (   945844) 52:34:61 adr: 1 control: 0 mode: -1
track:  75 lba:    239749 (   958996) 53:18:49 adr: 1 control: 0 mode: -1
track:  76 lba:    243120 (   972480) 54:03:45 adr: 1 control: 0 mode: -1
track:  77 lba:    245935 (   983740) 54:41:10 adr: 1 control: 0 mode: -1
track:  78 lba:    248805 (   995220) 55:19:30 adr: 1 control: 0 mode: -1
track:  79 lba:    251884 (  1007536) 56:00:34 adr: 1 control: 0 mode: -1
track:  80 lba:    255234 (  1020936) 56:45:09 adr: 1 control: 0 mode: -1
track:  81 lba:    258369 (  1033476) 57:26:69 adr: 1 control: 0 mode: -1
track:  82 lba:    261093 (  1044372) 58:03:18 adr: 1 control: 0 mode: -1
track:  83 lba:    263377 (  1053508) 58:33:52 adr: 1 control: 0 mode: -1
track:  84 lba:    265223 (  1060892) 58:58:23 adr: 1 control: 0 mode: -1
track:  85 lba:    267557 (  1070228) 59:29:32 adr: 1 control: 0 mode: -1
track:  86 lba:    270162 (  1080648) 60:04:12 adr: 1 control: 0 mode: -1
track:  87 lba:    271778 (  1087112) 60:25:53 adr: 1 control: 0 mode: -1
track:  88 lba:    273443 (  1093772) 60:47:68 adr: 1 control: 0 mode: -1
track:  89 lba:    275742 (  1102968) 61:18:42 adr: 1 control: 0 mode: -1
track:  90 lba:    277672 (  1110688) 61:44:22 adr: 1 control: 0 mode: -1
track:  91 lba:    278661 (  1114644) 61:57:36 adr: 1 control: 0 mode: -1
track:  92 lba:    280423 (  1121692) 62:20:73 adr: 1 control: 0 mode: -1
track:  93 lba:    282590 (  1130360) 62:49:65 adr: 1 control: 0 mode: -1
track:  94 lba:    284241 (  1136964) 63:11:66 adr: 1 control: 0 mode: -1
track:  95 lba:    287459 (  1149836) 63:54:59 adr: 1 control: 0 mode: -1
track:  96 lba:    289507 (  1158028) 64:22:07 adr: 1 control: 0 mode: -1
track:  97 lba:    294933 (  1179732) 65:34:33 adr: 1 control: 0 mode: -1
track:  98 lba:    297135 (  1188540) 66:03:60 adr: 1 control: 0 mode: -1
track:  99 lba:    298953 (  1195812) 66:28:03 adr: 1 control: 0 mode: -1
track:lout lba:    300225 (  1200900) 66:45:00 adr: 1 control: 0 mode: -1
